<mxfile host="app.diagrams.net" agent="Mozilla/5.0 (Windows NT 10.0; Win64; x64; rv:134.0) Gecko/20100101 Firefox/134.0" version="26.0.6">
  <diagram name="Page-1" id="sWO0P840ixHQ3cCAZL_h">
    <mxGraphModel dx="1520" dy="484" grid="0" gridSize="10" guides="1" tooltips="1" connect="1" arrows="1" fold="1" page="0" pageScale="1" pageWidth="850" pageHeight="1100" math="0" shadow="0">
      <root>
        <mxCell id="0" />
        <mxCell id="1" parent="0" />
        <mxCell id="oX0Et_s4n5gMPabf2sp8-1" value="" style="rounded=0;whiteSpace=wrap;html=1;" vertex="1" parent="1">
          <mxGeometry x="-341" y="219" width="1086" height="471" as="geometry" />
        </mxCell>
        <mxCell id="oX0Et_s4n5gMPabf2sp8-2" value="Enter Credentials" style="ellipse;whiteSpace=wrap;html=1;" vertex="1" parent="1">
          <mxGeometry x="-297" y="567" width="216" height="80" as="geometry" />
        </mxCell>
        <mxCell id="oX0Et_s4n5gMPabf2sp8-3" value="Validate" style="ellipse;whiteSpace=wrap;html=1;" vertex="1" parent="1">
          <mxGeometry x="-25" y="567" width="216" height="80" as="geometry" />
        </mxCell>
        <mxCell id="oX0Et_s4n5gMPabf2sp8-4" value="Login Response" style="ellipse;whiteSpace=wrap;html=1;" vertex="1" parent="1">
          <mxGeometry x="247" y="569" width="216" height="80" as="geometry" />
        </mxCell>
        <mxCell id="oX0Et_s4n5gMPabf2sp8-5" value="Reset Password" style="ellipse;whiteSpace=wrap;html=1;" vertex="1" parent="1">
          <mxGeometry x="514" y="567" width="216" height="80" as="geometry" />
        </mxCell>
        <mxCell id="oX0Et_s4n5gMPabf2sp8-14" style="edgeStyle=none;curved=1;rounded=0;orthogonalLoop=1;jettySize=auto;html=1;entryX=0.5;entryY=0;entryDx=0;entryDy=0;fontSize=12;startSize=8;endSize=8;" edge="1" parent="1" source="oX0Et_s4n5gMPabf2sp8-6" target="oX0Et_s4n5gMPabf2sp8-5">
          <mxGeometry relative="1" as="geometry" />
        </mxCell>
        <mxCell id="oX0Et_s4n5gMPabf2sp8-6" value="Admin" style="shape=umlActor;verticalLabelPosition=bottom;verticalAlign=top;html=1;outlineConnect=0;" vertex="1" parent="1">
          <mxGeometry x="566" y="288" width="112" height="181" as="geometry" />
        </mxCell>
        <mxCell id="oX0Et_s4n5gMPabf2sp8-15" style="edgeStyle=none;curved=1;rounded=0;orthogonalLoop=1;jettySize=auto;html=1;fontSize=12;startSize=8;endSize=8;" edge="1" parent="1" source="oX0Et_s4n5gMPabf2sp8-7" target="oX0Et_s4n5gMPabf2sp8-3">
          <mxGeometry relative="1" as="geometry" />
        </mxCell>
        <mxCell id="oX0Et_s4n5gMPabf2sp8-16" style="edgeStyle=none;curved=1;rounded=0;orthogonalLoop=1;jettySize=auto;html=1;exitX=0;exitY=1;exitDx=0;exitDy=0;exitPerimeter=0;entryX=0.5;entryY=0;entryDx=0;entryDy=0;fontSize=12;startSize=8;endSize=8;" edge="1" parent="1" source="oX0Et_s4n5gMPabf2sp8-7" target="oX0Et_s4n5gMPabf2sp8-2">
          <mxGeometry relative="1" as="geometry" />
        </mxCell>
        <mxCell id="oX0Et_s4n5gMPabf2sp8-17" style="edgeStyle=none;curved=1;rounded=0;orthogonalLoop=1;jettySize=auto;html=1;exitX=1;exitY=1;exitDx=0;exitDy=0;exitPerimeter=0;entryX=0.5;entryY=0;entryDx=0;entryDy=0;fontSize=12;startSize=8;endSize=8;" edge="1" parent="1" source="oX0Et_s4n5gMPabf2sp8-7" target="oX0Et_s4n5gMPabf2sp8-4">
          <mxGeometry relative="1" as="geometry" />
        </mxCell>
        <mxCell id="oX0Et_s4n5gMPabf2sp8-7" value="User" style="shape=umlActor;verticalLabelPosition=bottom;verticalAlign=top;html=1;outlineConnect=0;" vertex="1" parent="1">
          <mxGeometry x="37" y="288" width="112" height="181" as="geometry" />
        </mxCell>
      </root>
    </mxGraphModel>
  </diagram>
</mxfile>
